<svg xmlns="http://www.w3.org/2000/svg" id="svg2" version="1.1" fill="none" viewBox="0 0 36 36" height="36" width="36">
  <defs id="defs2"></defs>
  <path id="path1" fill="currentColor" d="m 20.013222,12.304468 c 0.4005,-0.0239 0.687,-0.0424 0.9761,-0.061 0.9894,-0.061 1.9761,-0.0796 2.9469,0.1724 1.7109,0.443 2.7216,1.6472 2.7958,3.4059 0.0265,0.6021 -0.0477,1.2095 -0.0742,1.8408 1.748,-0.3315 3.5252,-0.7931 5.3183,-0.1962 0.0079,0.0557 0.0159,0.114 0.0239,0.1697 -0.1618,0.0345 -0.3343,0.1273 -0.4828,0.0982 -1.2891,-0.2679 -2.5252,0.0504 -3.7613,0.3262 -0.4297,0.0955 -0.9443,0.1061 -1.2493,0.3608 -0.2839,0.2387 -0.3449,0.748 -0.5014,1.1379 -0.9151,2.2706 -2.2997,4.2467 -3.9125,6.0637 -2.5941,2.9204 -5.5491,5.3926 -9.11407,7.0557 -1.71619,0.8011 -3.50665,1.39 -5.43504,1.2759 -0.65783,-0.0398 -1.33688,-0.183 -1.95227,-0.4191 -1.376665,-0.5305 -1.896561,-1.7639 -1.416452,-3.1618 0.270562,-0.7878 0.737402,-1.4563 1.286482,-2.069 1.45093,-1.618 3.21487,-2.8435 5.04512,-3.9761 3.72683,-2.3051 7.75863,-3.9444 11.87803,-5.382 0.6207,-0.2175 1.2547,-0.4006 1.878,-0.6154 0.122,-0.0425 0.2838,-0.1433 0.3104,-0.2494 0.252,-0.939 0.3713,-1.8939 0.1405,-2.8567 -0.3448,-1.4589 -1.366,-2.199 -2.8647,-2.0929 -0.9125,0.0637 -1.8249,0.1512 -2.7401,0.1724 -0.366,0.008 -0.7559,-0.0822 -1.1034,-0.2095 -0.5013,-0.1857 -0.6181,-0.5597 -0.2971,-0.9868 0.4456,-0.59413 0.9416,-1.15382 1.4271,-1.71616 0.8222,-0.9522597 1.6286,-1.9177797 2.1936,-3.0557197 0.3501,-0.70557 0.6287,-1.43237 0.6393,-2.23343 0.0132,-1.10346 -0.565,-1.83025 -1.6499,-2.04776 -1.0796,-0.214853 -2.1406,-0.02122 -3.1937,0.20159 -1.6339,0.34749 -3.1777,0.94696 -4.68168,1.66314 -0.48011,0.22812 -0.97614,0.42441 -1.51195,0.33953 -0.24138,-0.03979 -0.46154,-0.20425 -0.68966,-0.313 0.17772,-0.17507 0.32627,-0.4191 0.53847,-0.51194 1.21486,-0.53846 2.41911,-1.10876 3.67372,-1.535817 1.7401,-0.594168 3.5412,-0.923082 5.3953,-0.8594212 0.9469,0.03183 1.8727,0.1777202 2.7348,0.5941672 1.3528,0.655181 1.9071,1.774541 1.6207,3.252011 -0.1804,0.93899 -0.5491,1.81168 -1.1008,2.57295 -0.7932,1.0955 -1.6658,2.1326397 -2.5067,3.1909997 -0.1591,0.19894 -0.3342,0.38197 -0.5835,0.66316 z m 4.252,6.7879 c -0.13,0.0344 -0.199,0.0477 -0.2626,0.0689 -4.6314,1.6234 -9.1062,3.5809 -13.26802,6.2043 -1.49868,0.947 -2.94696,1.9655 -4.1406,3.2998 -0.58356,0.6498 -1.07162,1.3634 -1.28117,2.2307 -0.24669,1.0239 0.22016,1.955 1.20955,2.2786 0.45359,0.1485 0.95757,0.2122 1.43768,0.2016 1.18833,-0.0239 2.3077,-0.3847 3.38463,-0.8595 3.05303,-1.3448 5.63133,-3.3528 7.92043,-5.748 2.0319,-2.1273 3.7295,-4.4828 4.8356,-7.2308 0.0531,-0.13 0.0955,-0.2626 0.1618,-0.4509 z"></path>
  <path id="path2" fill="currentColor" d="m 11.482742,19.429468 c 0.90452,-0.3396 1.74007,-0.6817 2.59158,-0.9656 1.122,-0.3766 2.2546,-0.74 3.4509,-0.7718 0.3342,-0.008 0.6764,0.0583 1.0053,0.1246 0.0902,0.0186 0.2255,0.1724 0.2149,0.2467 -0.0133,0.1061 -0.1247,0.2361 -0.2282,0.2838 -0.1379,0.0637 -0.305,0.061 -0.4615,0.0823 -0.3448,0.0424 -0.7056,0.0291 -1.0318,0.1326 -2.4191,0.756 -4.70297,1.7798 -6.60219,3.5119 -0.67905,0.6207 -1.4695,0.6579 -2.29709,0.4324 -0.50399,-0.1379 -0.59682,-0.3793 -0.3634,-0.8462 1.84882,-3.7055 3.42707,-7.5252 4.80108,-11.43237 0.06101,-0.17242 0.12733,-0.3448297 0.19894,-0.5119397 0.313,-0.72945 0.99736,-1.00001 1.74276,-0.70823 0.3421,0.13263 0.4217,0.40584 0.3819,0.70823 -0.0742,0.5782497 -0.1379,1.1671097 -0.2918,1.7267997 -0.7161,2.63401 -1.7241,5.15651 -2.92835,7.60211 -0.05305,0.1088 -0.1061,0.2176 -0.18568,0.382 z"></path>
</svg>
