<svg width="58" height="23" viewBox="0 0 58 23" fill="none" xmlns="http://www.w3.org/2000/svg">
<path d="M11.0675 0.967047C11.1275 0.906984 11.2176 0.876953 11.3378 0.876953C11.518 0.876953 11.6681 0.997079 11.7882 1.23733C11.9084 1.47758 11.8783 1.65778 11.6981 1.7779C7.4937 5.62197 5.09116 9.70629 4.49053 14.0309C4.3704 14.9919 4.31034 15.6225 4.31034 15.9229C4.31034 17.3644 4.73078 18.3554 5.57167 18.896L3.1391 19.5267C3.07904 18.5056 3.31929 17.7248 3.85986 17.1842C4.4605 16.6436 5.24132 16.3733 6.20234 16.3733C7.22342 16.3733 8.00424 16.6736 8.54481 17.2743C9.14545 17.8149 9.44576 18.5656 9.44576 19.5267C9.44576 20.5477 9.08538 21.3586 8.36462 21.9592C7.70392 22.4998 6.74291 22.7701 5.48158 22.7701C4.10011 22.7701 2.98894 22.3196 2.14805 21.4187C1.30716 20.4576 0.886719 19.0762 0.886719 17.2743C0.886719 16.8538 0.946782 16.1631 1.06691 15.2021C1.48735 12.4992 2.50843 10.0667 4.13015 7.90438C5.81192 5.68203 8.12437 3.36958 11.0675 0.967047ZM23.6808 0.967047C23.7409 0.906984 23.831 0.876953 23.9511 0.876953C24.1313 0.876953 24.2814 0.997079 24.4016 1.23733C24.5217 1.47758 24.4917 1.65778 24.3115 1.7779C20.107 5.62197 17.7045 9.70629 17.1039 14.0309C16.9837 14.9919 16.9237 15.6225 16.9237 15.9229C16.9237 17.3644 17.3441 18.3554 18.185 18.896L15.7524 19.5267C15.6924 18.5056 15.9326 17.7248 16.4732 17.1842C17.0738 16.6436 17.8547 16.3733 18.8157 16.3733C19.8367 16.3733 20.6176 16.6736 21.1581 17.2743C21.7588 17.8149 22.0591 18.5656 22.0591 19.5267C22.0591 20.5477 21.6987 21.3586 20.978 21.9592C20.3173 22.4998 19.3562 22.7701 18.0949 22.7701C16.7134 22.7701 15.6023 22.3196 14.7614 21.4187C13.9205 20.4576 13.5 19.0762 13.5 17.2743C13.5 16.8538 13.5601 16.1631 13.6802 15.2021C14.1007 12.4992 15.1218 10.0667 16.7435 7.90438C18.4253 5.68203 20.7377 3.36958 23.6808 0.967047Z" fill="#EEEEEE"/>
<path d="M46.9359 22.68C46.8759 22.7401 46.7858 22.7701 46.6656 22.7701C46.4855 22.7701 46.3353 22.65 46.2152 22.4097C46.095 22.1695 46.1251 21.9893 46.3053 21.8691C50.5097 18.0251 52.9123 13.9408 53.5129 9.61619C53.633 8.65517 53.6931 8.02451 53.6931 7.72419C53.6931 6.28267 53.2726 5.29162 52.4317 4.75105L54.8643 4.12038C54.9244 5.14146 54.6541 5.92228 54.0535 6.46286C53.5129 7.00343 52.7621 7.27371 51.8011 7.27371C50.78 7.27371 49.9691 7.00343 49.3685 6.46286C48.8279 5.86222 48.5576 5.0814 48.5576 4.12038C48.5576 3.0993 48.888 2.31848 49.5487 1.7779C50.2695 1.17727 51.2605 0.876953 52.5218 0.876953C53.9033 0.876953 55.0145 1.35746 55.8554 2.31847C56.6963 3.21943 57.1167 4.57085 57.1167 6.37276C57.1167 6.7932 57.0566 7.48393 56.9365 8.44495C56.5161 11.1478 55.465 13.6104 53.7832 15.8328C52.1615 17.995 49.879 20.2775 46.9359 22.68ZM34.3226 22.68C34.2625 22.7401 34.1724 22.7701 34.0523 22.7701C33.8721 22.7701 33.722 22.65 33.6018 22.4097C33.4817 22.1695 33.5117 21.9893 33.6919 21.8691C37.8964 18.0251 40.2989 13.9408 40.8996 9.61619C41.0197 8.65517 41.0797 8.02451 41.0797 7.72419C41.0797 6.28267 40.6593 5.29162 39.8184 4.75105L42.251 4.12038C42.311 5.14146 42.0408 5.92228 41.4401 6.46286C40.8996 7.00343 40.1488 7.27371 39.1877 7.27371C38.1667 7.27371 37.3558 7.00343 36.7552 6.46286C36.2146 5.86222 35.9443 5.0814 35.9443 4.12038C35.9443 3.0993 36.2747 2.31848 36.9354 1.7779C37.6561 1.17727 38.6472 0.876953 39.9085 0.876953C41.29 0.876953 42.4011 1.35746 43.242 2.31847C44.0829 3.21943 44.5034 4.57085 44.5034 6.37276C44.5034 6.7932 44.4433 7.48393 44.3232 8.44495C43.9027 11.1478 42.8516 13.6104 41.1698 15.8328C39.5481 17.995 37.2657 20.2775 34.3226 22.68Z" fill="#EEEEEE"/>
</svg>
